<svg xmlns="http://www.w3.org/2000/svg" width="48" height="48" viewBox="0 0 48 48" fill="none">
  <!-- Схемотехника: Электронная схема -->
  <g stroke="#0066FF" stroke-width="2" stroke-linecap="round" stroke-linejoin="round">
    <!-- Резистор -->
    <rect x="6" y="20" width="8" height="4" rx="1" fill="none"/>
    <line x1="2" y1="22" x2="6" y2="22"/>
    <line x1="14" y1="22" x2="18" y2="22"/>
    
    <!-- Конденсатор -->
    <line x1="22" y1="18" x2="22" y2="26"/>
    <line x1="26" y1="18" x2="26" y2="26"/>
    <line x1="18" y1="22" x2="22" y2="22"/>
    <line x1="26" y1="22" x2="30" y2="22"/>
    
    <!-- Транзистор/Микросхема -->
    <circle cx="38" cy="22" r="6" fill="none" stroke-width="2.5"/>
    <line x1="30" y1="22" x2="32" y2="22"/>
    <line x1="38" y1="16" x2="38" y2="12"/>
    <line x1="38" y1="28" x2="38" y2="32"/>
    <line x1="44" y1="22" x2="46" y2="22"/>
    
    <!-- Соединительные линии -->
    <path d="M 2 22 L 2 36 L 46 36 L 46 22" stroke-dasharray="2,2" opacity="0.5"/>
    
    <!-- Узлы соединения -->
    <circle cx="18" cy="22" r="1.5" fill="#0066FF"/>
    <circle cx="30" cy="22" r="1.5" fill="#0066FF"/>
    <circle cx="38" cy="36" r="1.5" fill="#07be8a"/>
  </g>
</svg>
