<svg xmlns="http://www.w3.org/2000/svg" width="32" height="32" viewBox="0 0 32 32" fill="none">
  <!-- Автономное питание: Солнечная панель + батарея (белая версия) -->
  <g stroke="#FFFFFF" stroke-width="1.8" stroke-linecap="round" stroke-linejoin="round">
    <!-- Солнечная панель -->
    <rect x="6" y="4" width="20" height="12" rx="1.5" fill="none"/>
    <line x1="6" y1="10" x2="26" y2="10"/>
    <line x1="11" y1="4" x2="11" y2="16"/>
    <line x1="16" y1="4" x2="16" y2="16"/>
    <line x1="21" y1="4" x2="21" y2="16"/>
    
    <!-- Солнечные лучи -->
    <path d="M 3 7 L 5 8" stroke-width="1.5"/>
    <path d="M 3 13 L 5 12" stroke-width="1.5"/>
    <path d="M 27 8 L 29 7" stroke-width="1.5"/>
    <path d="M 27 12 L 29 13" stroke-width="1.5"/>
    
    <!-- Стрелка вниз (передача энергии) -->
    <path d="M 16 16 L 16 19" stroke-width="2"/>
    <path d="M 14 17.5 L 16 19.5 L 18 17.5" fill="none" stroke-width="2"/>
    
    <!-- Батарея -->
    <rect x="10" y="21" width="12" height="8" rx="1.5" fill="none"/>
    
    <!-- Уровень заряда -->
    <rect x="11.5" y="23" width="2.5" height="4" rx="0.5" fill="#FFFFFF" opacity="0.8"/>
    <rect x="14.5" y="23" width="2.5" height="4" rx="0.5" fill="#FFFFFF" opacity="0.6"/>
    <rect x="17.5" y="23" width="2.5" height="4" rx="0.5" fill="#FFFFFF" opacity="0.4"/>
    
    <!-- Плюс на батарее -->
    <path d="M 24 24 L 26 24 M 25 23 L 25 25" stroke-width="1.5"/>
    
    <!-- Молния (энергия) -->
    <path d="M 4 24 L 6.5 26 L 5.5 26 L 8 28 M 6.5 26 L 7 25" fill="none" stroke="#07be8a" stroke-width="1.5"/>
  </g>
</svg>
