<svg xmlns="http://www.w3.org/2000/svg" width="48" height="48" viewBox="0 0 48 48" fill="none">
  <!-- IoT/Передача данных: Облако + устройства -->
  <g stroke="#0066FF" stroke-width="2" stroke-linecap="round" stroke-linejoin="round">
    <!-- Облако (сервер) -->
    <path d="M 16 14 Q 16 10, 20 10 Q 22 8, 26 8 Q 30 8, 32 10 Q 36 10, 36 14 Q 38 14, 38 18 Q 38 22, 34 22 L 18 22 Q 14 22, 14 18 Q 14 14, 16 14 Z" fill="none"/>
    
    <!-- Сервер внутри облака -->
    <rect x="22" y="14" width="4" height="6" rx="0.5" fill="none" stroke-width="1.5"/>
    <line x1="23" y1="16" x2="25" y2="16" stroke-width="1"/>
    <line x1="23" y1="18" x2="25" y2="18" stroke-width="1"/>
    
    <!-- Датчики внизу -->
    <!-- Датчик 1 (слева) -->
    <rect x="8" y="34" width="6" height="8" rx="1" fill="none"/>
    <circle cx="11" cy="37" r="1" fill="#07be8a"/>
    
    <!-- Датчик 2 (центр) -->
    <rect x="21" y="34" width="6" height="8" rx="1" fill="none"/>
    <circle cx="24" cy="37" r="1" fill="#07be8a"/>
    
    <!-- Датчик 3 (справа) -->
    <rect x="34" y="34" width="6" height="8" rx="1" fill="none"/>
    <circle cx="37" cy="37" r="1" fill="#07be8a"/>
    
    <!-- Линии передачи данных -->
    <path d="M 11 34 L 11 28 L 20 24" stroke-dasharray="2,2" opacity="0.6"/>
    <path d="M 24 34 L 24 26" stroke-dasharray="2,2" opacity="0.6"/>
    <path d="M 37 34 L 37 28 L 28 24" stroke-dasharray="2,2" opacity="0.6"/>
    
    <!-- Пакеты данных (точки на линиях) -->
    <circle cx="15" cy="30" r="1" fill="#0066FF"/>
    <circle cx="24" cy="29" r="1" fill="#0066FF"/>
    <circle cx="32" cy="30" r="1" fill="#0066FF"/>
    
    <!-- Антенны на датчиках -->
    <line x1="11" y1="34" x2="11" y2="32" stroke-width="1.5"/>
    <circle cx="11" cy="32" r="0.5" fill="#0066FF"/>
    
    <line x1="24" y1="34" x2="24" y2="32" stroke-width="1.5"/>
    <circle cx="24" cy="32" r="0.5" fill="#0066FF"/>
    
    <line x1="37" y1="34" x2="37" y2="32" stroke-width="1.5"/>
    <circle cx="37" cy="32" r="0.5" fill="#0066FF"/>
    
    <!-- Волны сигнала -->
    <path d="M 18 18 Q 16 20, 14 22" fill="none" opacity="0.4" stroke-width="1.5"/>
    <path d="M 30 18 Q 32 20, 34 22" fill="none" opacity="0.4" stroke-width="1.5"/>
  </g>
</svg>
