<svg width="16" height="16" viewBox="0 0 152 153" fill="none" xmlns="http://www.w3.org/2000/svg">
<path d="M152 0H0V152H152V0Z" fill="#E83C39"/>
<path fill-rule="evenodd" clip-rule="evenodd" d="M52.0998 73.2802C56.1098 77.0302 62.3998 76.8202 66.1498 72.8102C67.8398 71.0102 68.7198 68.7402 68.8198 66.4502C68.8198 66.2402 68.8198 66.0402 68.8198 65.8302C68.9198 63.0402 69.9998 60.2702 72.0498 58.0802C74.3598 55.6102 77.4798 54.3302 80.6198 54.2702C80.7498 54.2702 80.8698 54.2702 80.9998 54.2702C81.0498 54.2702 81.0998 54.2702 81.1498 54.2702C83.9398 54.3702 86.7098 55.4502 88.8998 57.5002C91.3698 59.8102 92.6498 62.9302 92.7098 66.0702C92.7098 66.1302 92.7098 66.1802 92.7098 66.2402C92.7098 66.2702 92.7098 66.3002 92.7098 66.3302C92.6598 69.2102 91.5898 72.0802 89.4698 74.3502C87.0998 76.8902 83.8798 78.1702 80.6598 78.1602C80.6398 78.1602 80.6198 78.1602 80.5998 78.1602C77.9398 78.1602 75.2798 79.2102 73.3198 81.3102C69.5698 85.3202 69.7798 91.6102 73.7898 95.3602C75.5898 97.0502 77.8598 97.9302 80.1498 98.0302C80.3598 98.0302 80.5598 98.0302 80.7698 98.0302C83.5598 98.1302 86.3298 99.2102 88.5198 101.26C90.9898 103.57 92.2698 106.69 92.3298 109.83C92.3298 110.02 92.3298 110.21 92.3298 110.39C92.3898 112.97 93.4498 115.52 95.4798 117.43C99.4898 121.18 105.78 120.97 109.53 116.96C113.28 112.95 113.07 106.66 109.06 102.91C107.19 101.16 104.82 100.27 102.44 100.23C102.41 100.23 102.38 100.23 102.35 100.23C99.4698 100.18 96.5998 99.1102 94.3298 96.9902C91.7898 94.6202 90.5098 91.4002 90.5198 88.1702C90.5198 88.1502 90.5198 88.1302 90.5198 88.1102C90.5198 88.0402 90.5198 87.9702 90.5198 87.9002C90.6198 85.1102 91.6998 82.3402 93.7498 80.1502C96.0598 77.6802 99.1798 76.4002 102.32 76.3402C102.51 76.3402 102.7 76.3402 102.88 76.3402C105.46 76.2802 108.01 75.2202 109.92 73.1902C113.67 69.1802 113.46 62.8902 109.45 59.1402C107.58 57.3902 105.21 56.5002 102.83 56.4602C102.8 56.4602 102.77 56.4602 102.74 56.4602C99.8598 56.4102 96.9898 55.3402 94.7198 53.2202C92.1798 50.8502 90.8998 47.6302 90.9098 44.4102C90.9098 44.4102 90.9098 44.3602 90.9098 44.3502C90.9098 41.6902 89.8598 39.0302 87.7598 37.0702C83.7498 33.3202 77.4598 33.5302 73.7098 37.5402C71.9598 39.4102 71.0698 41.7802 71.0298 44.1602C71.0298 44.1902 71.0298 44.2202 71.0298 44.2502C70.9798 47.1302 69.9098 50.0002 67.7898 52.2702C65.4198 54.8102 62.1998 56.0902 58.9698 56.0802C58.9498 56.0802 58.9298 56.0802 58.9098 56.0802C56.2498 56.0802 53.5898 57.1302 51.6298 59.2302C47.8798 63.2402 48.0898 69.5302 52.0998 73.2802Z" fill="white"/>
<path fill-rule="evenodd" clip-rule="evenodd" d="M76.12 71.0808C78.87 73.6508 83.17 73.5008 85.74 70.7608C88.31 68.0108 88.16 63.7108 85.42 61.1408C82.67 58.5708 78.37 58.7208 75.8 61.4608C73.23 64.2108 73.38 68.5108 76.12 71.0808Z" fill="white"/>
</svg>
